<svg width="666" height="606" viewBox="0 0 666 606" fill="none" xmlns="http://www.w3.org/2000/svg">
<g filter="url(#filter0_i_23_166)">
<path d="M423.2 539.071H396.238C395.119 539.071 394.132 539.806 393.81 540.878C393.503 541.902 393.871 543.009 394.731 543.645L423.087 564.603C424.639 565.751 426.713 565.902 428.416 564.992L439.246 559.204C442.432 557.501 442.816 553.085 439.972 550.858L426.284 540.135C425.404 539.446 424.318 539.071 423.2 539.071Z" fill="#082E53"/>
</g>
<g filter="url(#filter1_i_23_166)">
<path d="M478.428 604.525L456.231 588.283C453.565 586.332 453.49 582.378 456.08 580.328L464.815 573.413C466.578 572.018 469.056 571.97 470.871 573.298L509.757 601.752C510.506 602.3 510.798 603.279 510.473 604.148C510.17 604.955 509.398 605.49 508.536 605.49H481.381C480.319 605.49 479.285 605.152 478.428 604.525Z" fill="#082E53"/>
</g>
<g filter="url(#filter2_i_23_166)">
<path d="M394.914 605.49H417.987C419.282 605.49 420.534 604.978 421.471 604.084C500.968 528.278 597.543 507.952 666 500.767C502.542 509.406 426.081 569.02 392.839 600.408C391.85 601.342 391.661 602.805 392.333 603.988C392.86 604.916 393.846 605.49 394.914 605.49Z" fill="#FBC108"/>
</g>
<g filter="url(#filter3_i_23_166)">
<path d="M320.01 550.564L325.801 543.917C327.879 541.532 331.622 541.652 333.543 544.165L374.622 597.904C377.139 601.196 374.788 605.946 370.644 605.941L359.815 605.927C358.26 605.925 356.794 605.199 355.849 603.964L348.192 593.948C347.234 592.694 345.739 591.966 344.161 591.984L299.478 592.512C294.895 592.566 292.913 586.729 296.582 583.982C297.39 583.377 298.37 583.046 299.379 583.036L329.557 582.764C333.68 582.727 335.988 577.995 333.48 574.722L319.812 556.89C318.365 555.002 318.448 552.357 320.01 550.564Z" fill="#082E53"/>
</g>
<g filter="url(#filter4_i_23_166)">
<path d="M256.473 600.116L219.612 547.157C217.304 543.842 219.677 539.3 223.716 539.3H232.288C233.965 539.3 235.529 540.14 236.456 541.537L260.345 577.57C262.271 580.476 266.506 580.567 268.556 577.748L295.122 541.213C295.996 540.011 297.392 539.3 298.878 539.3C302.65 539.3 304.849 543.559 302.665 546.635L264.653 600.155C262.648 602.978 258.451 602.958 256.473 600.116Z" fill="#082E53"/>
</g>
<g filter="url(#filter5_i_23_166)">
<path d="M7.41243 600.953V539.453C7.2398 539.453 8.86249 539.453 16.7343 539.453C24.5992 539.453 25.1199 539.821 30.3272 543.987L74.7617 582.22C78.0032 585.009 83.0229 582.709 83.0229 578.433V550.882C83.0229 542.301 90.8613 539.704 97.201 539.346C99.744 539.202 101.667 541.379 101.667 543.926V600.953C101.667 603.715 99.4283 605.953 96.6669 605.953H90.2732C84.8872 605.953 81.4692 604.395 76.8083 600.758L34.36 563.388C31.1303 560.545 26.0561 562.838 26.0561 567.141V600.953C26.0561 603.715 23.8175 605.953 21.0561 605.953H12.4124C9.651 605.953 7.41243 603.715 7.41243 600.953Z" fill="#082E53"/>
</g>
<g filter="url(#filter6_i_23_166)">
<path d="M129.004 539.3C124.853 539.3 121.474 541.25 118.997 543.619C116.416 546.088 118.613 549.715 122.185 549.715H198.327C202.261 549.715 204.689 545.246 201.64 542.759C199.04 540.639 195.814 539.3 191.411 539.3H129.004Z" fill="#082E53"/>
<path d="M114.164 593.976V573.461C114.164 570.7 116.403 568.461 119.164 568.461H127.91C130.672 568.461 132.91 570.7 132.91 573.461V590.82C132.91 593.582 135.149 595.82 137.91 595.82H184.875C187.637 595.82 189.875 593.582 189.875 590.82V573.461C189.875 570.7 192.114 568.461 194.875 568.461H203.415C206.177 568.461 208.415 570.697 208.415 573.459V593.794C208.415 602.305 199.489 605.447 195.025 605.953H129.105C118.805 605.953 114.679 598.03 114.164 593.976Z" fill="#082E53"/>
</g>
<g filter="url(#filter7_i_23_166)">
<path d="M622.565 1.61133C467.19 41.5343 393.292 137.605 368.498 177.505C362.908 186.501 350.511 189.549 341.935 183.334C334.161 177.701 332.658 166.689 338.989 159.472C395.434 95.1419 483.996 35.0592 622.565 1.61133Z" fill="#082E53"/>
</g>
<g filter="url(#filter8_i_23_166)">
<path d="M201.214 442.38L146.299 308.525C143.834 302.516 143.804 295.783 146.217 289.752L152.277 274.601C160.594 253.808 189.952 253.599 198.565 274.271L213.732 310.671C222.171 330.924 250.743 331.259 259.654 311.209L290.221 242.434C295.887 229.686 311.82 225.339 323.175 233.443C331.062 239.072 334.349 249.191 331.276 258.38L270.268 440.819C266.858 451.016 257.31 457.891 246.559 457.891H224.343C214.201 457.891 205.063 451.763 201.214 442.38Z" fill="#082E53"/>
</g>
<g filter="url(#filter9_i_23_166)">
<path d="M42.2892 457.891H21.8167C13.5566 457.891 6.12871 452.862 3.06098 445.193C1.09884 440.287 1.13656 434.808 3.16604 429.93L112.63 166.832C114.77 161.689 119.033 157.724 124.318 155.962C133.52 152.895 143.567 157.152 147.764 165.896L160.017 191.422C163.087 197.818 163.295 205.218 160.588 211.777L65.3985 442.428C61.5366 451.786 52.4125 457.891 42.2892 457.891Z" fill="#FBC108"/>
</g>
<g filter="url(#filter10_i_23_166)">
<path d="M569.761 459.394L562.079 459.394C550.277 459.394 540.266 451.151 535.807 440.225C483.026 310.872 177.638 112.618 69.1924 42.1729C281.677 144.752 497.617 294.11 592.024 411.65C597.075 417.939 598.477 426.333 596.069 434.031L593.621 441.857C590.357 452.291 580.693 459.394 569.761 459.394Z" fill="#FBC108"/>
</g>
<g filter="url(#filter11_i_23_166)">
<path d="M411.309 442.737L443.542 363.298C447.307 354.018 445.172 343.387 438.114 336.281L425.329 323.409C413.489 312.554 394.457 316.821 388.383 331.692L348.77 428.686C346.265 434.818 346.725 441.763 350.017 447.512C353.85 454.207 360.974 458.337 368.689 458.337L388.143 458.337C398.321 458.337 407.482 452.168 411.309 442.737Z" fill="#082E53"/>
</g>
<g filter="url(#filter12_i_23_166)">
<path d="M451.77 187.909L435.15 224.864C430.548 235.096 433.326 247.141 441.945 254.324L451.786 262.524C463.973 272.68 482.502 268.247 488.773 253.675L518.254 185.173C520.007 181.098 520.124 176.504 518.58 172.346C515.182 163.195 504.876 158.683 495.848 162.393L465.069 175.039C459.153 177.47 454.394 182.076 451.77 187.909Z" fill="#082E53"/>
</g>
<defs>
<filter id="filter0_i_23_166" x="393.703" y="539.071" width="48.1865" height="30.5112" filterUnits="userSpaceOnUse" color-interpolation-filters="sRGB">
<feFlood flood-opacity="0" result="BackgroundImageFix"/>
<feBlend mode="normal" in="SourceGraphic" in2="BackgroundImageFix" result="shape"/>
<feColorMatrix in="SourceAlpha" type="matrix" values="0 0 0 0 0 0 0 0 0 0 0 0 0 0 0 0 0 0 127 0" result="hardAlpha"/>
<feOffset dy="4"/>
<feGaussianBlur stdDeviation="2"/>
<feComposite in2="hardAlpha" operator="arithmetic" k2="-1" k3="1"/>
<feColorMatrix type="matrix" values="0 0 0 0 0 0 0 0 0 0 0 0 0 0 0 0 0 0 0.25 0"/>
<feBlend mode="normal" in2="shape" result="effect1_innerShadow_23_166"/>
</filter>
<filter id="filter1_i_23_166" x="454.184" y="572.333" width="56.4209" height="37.1562" filterUnits="userSpaceOnUse" color-interpolation-filters="sRGB">
<feFlood flood-opacity="0" result="BackgroundImageFix"/>
<feBlend mode="normal" in="SourceGraphic" in2="BackgroundImageFix" result="shape"/>
<feColorMatrix in="SourceAlpha" type="matrix" values="0 0 0 0 0 0 0 0 0 0 0 0 0 0 0 0 0 0 127 0" result="hardAlpha"/>
<feOffset dy="4"/>
<feGaussianBlur stdDeviation="2"/>
<feComposite in2="hardAlpha" operator="arithmetic" k2="-1" k3="1"/>
<feColorMatrix type="matrix" values="0 0 0 0 0 0 0 0 0 0 0 0 0 0 0 0 0 0 0.25 0"/>
<feBlend mode="normal" in2="shape" result="effect1_innerShadow_23_166"/>
</filter>
<filter id="filter2_i_23_166" x="391.936" y="500.767" width="274.064" height="108.723" filterUnits="userSpaceOnUse" color-interpolation-filters="sRGB">
<feFlood flood-opacity="0" result="BackgroundImageFix"/>
<feBlend mode="normal" in="SourceGraphic" in2="BackgroundImageFix" result="shape"/>
<feColorMatrix in="SourceAlpha" type="matrix" values="0 0 0 0 0 0 0 0 0 0 0 0 0 0 0 0 0 0 127 0" result="hardAlpha"/>
<feOffset dy="4"/>
<feGaussianBlur stdDeviation="2"/>
<feComposite in2="hardAlpha" operator="arithmetic" k2="-1" k3="1"/>
<feColorMatrix type="matrix" values="0 0 0 0 0 0 0 0 0 0 0 0 0 0 0 0 0 0 0.25 0"/>
<feBlend mode="normal" in2="shape" result="effect1_innerShadow_23_166"/>
</filter>
<filter id="filter3_i_23_166" x="294.674" y="542.202" width="80.9854" height="67.7383" filterUnits="userSpaceOnUse" color-interpolation-filters="sRGB">
<feFlood flood-opacity="0" result="BackgroundImageFix"/>
<feBlend mode="normal" in="SourceGraphic" in2="BackgroundImageFix" result="shape"/>
<feColorMatrix in="SourceAlpha" type="matrix" values="0 0 0 0 0 0 0 0 0 0 0 0 0 0 0 0 0 0 127 0" result="hardAlpha"/>
<feOffset dy="4"/>
<feGaussianBlur stdDeviation="2"/>
<feComposite in2="hardAlpha" operator="arithmetic" k2="-1" k3="1"/>
<feColorMatrix type="matrix" values="0 0 0 0 0 0 0 0 0 0 0 0 0 0 0 0 0 0 0.25 0"/>
<feBlend mode="normal" in2="shape" result="effect1_innerShadow_23_166"/>
</filter>
<filter id="filter4_i_23_166" x="218.707" y="539.3" width="84.8242" height="66.96" filterUnits="userSpaceOnUse" color-interpolation-filters="sRGB">
<feFlood flood-opacity="0" result="BackgroundImageFix"/>
<feBlend mode="normal" in="SourceGraphic" in2="BackgroundImageFix" result="shape"/>
<feColorMatrix in="SourceAlpha" type="matrix" values="0 0 0 0 0 0 0 0 0 0 0 0 0 0 0 0 0 0 127 0" result="hardAlpha"/>
<feOffset dy="4"/>
<feGaussianBlur stdDeviation="2"/>
<feComposite in2="hardAlpha" operator="arithmetic" k2="-1" k3="1"/>
<feColorMatrix type="matrix" values="0 0 0 0 0 0 0 0 0 0 0 0 0 0 0 0 0 0 0.25 0"/>
<feBlend mode="normal" in2="shape" result="effect1_innerShadow_23_166"/>
</filter>
<filter id="filter5_i_23_166" x="6.89453" y="539.339" width="94.7725" height="70.6143" filterUnits="userSpaceOnUse" color-interpolation-filters="sRGB">
<feFlood flood-opacity="0" result="BackgroundImageFix"/>
<feBlend mode="normal" in="SourceGraphic" in2="BackgroundImageFix" result="shape"/>
<feColorMatrix in="SourceAlpha" type="matrix" values="0 0 0 0 0 0 0 0 0 0 0 0 0 0 0 0 0 0 127 0" result="hardAlpha"/>
<feOffset dy="4"/>
<feGaussianBlur stdDeviation="2"/>
<feComposite in2="hardAlpha" operator="arithmetic" k2="-1" k3="1"/>
<feColorMatrix type="matrix" values="0 0 0 0 0 0 0 0 0 0 0 0 0 0 0 0 0 0 0.25 0"/>
<feBlend mode="normal" in2="shape" result="effect1_innerShadow_23_166"/>
</filter>
<filter id="filter6_i_23_166" x="114.164" y="539.3" width="94.251" height="70.6528" filterUnits="userSpaceOnUse" color-interpolation-filters="sRGB">
<feFlood flood-opacity="0" result="BackgroundImageFix"/>
<feBlend mode="normal" in="SourceGraphic" in2="BackgroundImageFix" result="shape"/>
<feColorMatrix in="SourceAlpha" type="matrix" values="0 0 0 0 0 0 0 0 0 0 0 0 0 0 0 0 0 0 127 0" result="hardAlpha"/>
<feOffset dy="4"/>
<feGaussianBlur stdDeviation="2"/>
<feComposite in2="hardAlpha" operator="arithmetic" k2="-1" k3="1"/>
<feColorMatrix type="matrix" values="0 0 0 0 0 0 0 0 0 0 0 0 0 0 0 0 0 0 0.25 0"/>
<feBlend mode="normal" in2="shape" result="effect1_innerShadow_23_166"/>
</filter>
<filter id="filter7_i_23_166" x="335.042" y="1.61133" width="287.523" height="188.988" filterUnits="userSpaceOnUse" color-interpolation-filters="sRGB">
<feFlood flood-opacity="0" result="BackgroundImageFix"/>
<feBlend mode="normal" in="SourceGraphic" in2="BackgroundImageFix" result="shape"/>
<feColorMatrix in="SourceAlpha" type="matrix" values="0 0 0 0 0 0 0 0 0 0 0 0 0 0 0 0 0 0 127 0" result="hardAlpha"/>
<feOffset dy="4"/>
<feGaussianBlur stdDeviation="2"/>
<feComposite in2="hardAlpha" operator="arithmetic" k2="-1" k3="1"/>
<feColorMatrix type="matrix" values="0 0 0 0 0 0 0 0 0 0 0 0 0 0 0 0 0 0 0.25 0"/>
<feBlend mode="normal" in2="shape" result="effect1_innerShadow_23_166"/>
</filter>
<filter id="filter8_i_23_166" x="144.429" y="229.335" width="187.987" height="232.556" filterUnits="userSpaceOnUse" color-interpolation-filters="sRGB">
<feFlood flood-opacity="0" result="BackgroundImageFix"/>
<feBlend mode="normal" in="SourceGraphic" in2="BackgroundImageFix" result="shape"/>
<feColorMatrix in="SourceAlpha" type="matrix" values="0 0 0 0 0 0 0 0 0 0 0 0 0 0 0 0 0 0 127 0" result="hardAlpha"/>
<feOffset dy="4"/>
<feGaussianBlur stdDeviation="2"/>
<feComposite in2="hardAlpha" operator="arithmetic" k2="-1" k3="1"/>
<feColorMatrix type="matrix" values="0 0 0 0 0 0 0 0 0 0 0 0 0 0 0 0 0 0 0.25 0"/>
<feBlend mode="normal" in2="shape" result="effect1_innerShadow_23_166"/>
</filter>
<filter id="filter9_i_23_166" x="1.61621" y="154.971" width="160.862" height="306.919" filterUnits="userSpaceOnUse" color-interpolation-filters="sRGB">
<feFlood flood-opacity="0" result="BackgroundImageFix"/>
<feBlend mode="normal" in="SourceGraphic" in2="BackgroundImageFix" result="shape"/>
<feColorMatrix in="SourceAlpha" type="matrix" values="0 0 0 0 0 0 0 0 0 0 0 0 0 0 0 0 0 0 127 0" result="hardAlpha"/>
<feOffset dy="4"/>
<feGaussianBlur stdDeviation="2"/>
<feComposite in2="hardAlpha" operator="arithmetic" k2="-1" k3="1"/>
<feColorMatrix type="matrix" values="0 0 0 0 0 0 0 0 0 0 0 0 0 0 0 0 0 0 0.25 0"/>
<feBlend mode="normal" in2="shape" result="effect1_innerShadow_23_166"/>
</filter>
<filter id="filter10_i_23_166" x="69.1924" y="42.1729" width="528.023" height="421.221" filterUnits="userSpaceOnUse" color-interpolation-filters="sRGB">
<feFlood flood-opacity="0" result="BackgroundImageFix"/>
<feBlend mode="normal" in="SourceGraphic" in2="BackgroundImageFix" result="shape"/>
<feColorMatrix in="SourceAlpha" type="matrix" values="0 0 0 0 0 0 0 0 0 0 0 0 0 0 0 0 0 0 127 0" result="hardAlpha"/>
<feOffset dy="4"/>
<feGaussianBlur stdDeviation="2"/>
<feComposite in2="hardAlpha" operator="arithmetic" k2="-1" k3="1"/>
<feColorMatrix type="matrix" values="0 0 0 0 0 0 0 0 0 0 0 0 0 0 0 0 0 0 0.25 0"/>
<feBlend mode="normal" in2="shape" result="effect1_innerShadow_23_166"/>
</filter>
<filter id="filter11_i_23_166" x="347.173" y="317.337" width="98.2041" height="145" filterUnits="userSpaceOnUse" color-interpolation-filters="sRGB">
<feFlood flood-opacity="0" result="BackgroundImageFix"/>
<feBlend mode="normal" in="SourceGraphic" in2="BackgroundImageFix" result="shape"/>
<feColorMatrix in="SourceAlpha" type="matrix" values="0 0 0 0 0 0 0 0 0 0 0 0 0 0 0 0 0 0 127 0" result="hardAlpha"/>
<feOffset dy="4"/>
<feGaussianBlur stdDeviation="2"/>
<feComposite in2="hardAlpha" operator="arithmetic" k2="-1" k3="1"/>
<feColorMatrix type="matrix" values="0 0 0 0 0 0 0 0 0 0 0 0 0 0 0 0 0 0 0.25 0"/>
<feBlend mode="normal" in2="shape" result="effect1_innerShadow_23_166"/>
</filter>
<filter id="filter12_i_23_166" x="432.948" y="161.093" width="86.7109" height="110.938" filterUnits="userSpaceOnUse" color-interpolation-filters="sRGB">
<feFlood flood-opacity="0" result="BackgroundImageFix"/>
<feBlend mode="normal" in="SourceGraphic" in2="BackgroundImageFix" result="shape"/>
<feColorMatrix in="SourceAlpha" type="matrix" values="0 0 0 0 0 0 0 0 0 0 0 0 0 0 0 0 0 0 127 0" result="hardAlpha"/>
<feOffset dy="4"/>
<feGaussianBlur stdDeviation="2"/>
<feComposite in2="hardAlpha" operator="arithmetic" k2="-1" k3="1"/>
<feColorMatrix type="matrix" values="0 0 0 0 0 0 0 0 0 0 0 0 0 0 0 0 0 0 0.25 0"/>
<feBlend mode="normal" in2="shape" result="effect1_innerShadow_23_166"/>
</filter>
</defs>
</svg>
